<svg width="25" height="28" viewBox="0 0 25 28" fill="none" xmlns="http://www.w3.org/2000/svg">
<path d="M22.5954 24.3803C21.3321 26.1747 19.9927 27.9257 17.9532 27.9547C15.9137 27.9981 15.2592 26.8115 12.9458 26.8115C10.6171 26.8115 9.90171 27.9257 7.9687 27.9981C5.97484 28.0704 4.46804 26.0879 3.18954 24.3369C0.586878 20.7626 -1.40697 14.1783 1.27179 9.75021C2.59595 7.55063 4.97031 6.16142 7.54253 6.11801C9.49077 6.08906 11.3476 7.37698 12.55 7.37698C13.7372 7.37698 15.9898 5.82859 18.349 6.06012C19.3383 6.10353 22.1084 6.43637 23.8891 8.92537C23.7521 9.01219 20.5863 10.7777 20.6168 14.4388C20.6624 18.809 24.6501 20.2706 24.6958 20.2851C24.6501 20.3864 24.0565 22.3689 22.5954 24.3803ZM13.9046 1.22682C15.0157 0.0257364 16.8574 -0.885933 18.3794 -0.943817C18.5773 0.749284 17.8619 2.45686 16.7965 3.67242C15.7463 4.90245 14.0112 5.85753 12.3065 5.72729C12.0782 4.06313 12.9305 2.32662 13.9046 1.22682Z" fill="black"/>
</svg>
